<svg xmlns:dc="http://purl.org/dc/elements/1.1/" xmlns:cc="http://creativecommons.org/ns#" xmlns:rdf="http://www.w3.org/1999/02/22-rdf-syntax-ns#" xmlns:svg="http://www.w3.org/2000/svg" xmlns="http://www.w3.org/2000/svg" xmlns:sodipodi="http://sodipodi.sourceforge.net/DTD/sodipodi-0.dtd" xmlns:inkscape="http://www.inkscape.org/namespaces/inkscape" viewBox="0 0 10.583333 13.2291675" version="1.1" x="0px" y="0px">
	<g>
		<path style="color:#000000;font-style:normal;font-variant:normal;font-weight:normal;font-stretch:normal;font-size:medium;line-height:normal;font-family:sans-serif;font-variant-ligatures:normal;font-variant-position:normal;font-variant-caps:normal;font-variant-numeric:normal;font-variant-alternates:normal;font-feature-settings:normal;text-indent:0;text-align:start;text-decoration:none;text-decoration-line:none;text-decoration-style:solid;text-decoration-color:#000000;letter-spacing:normal;word-spacing:normal;text-transform:none;writing-mode:lr-tb;direction:ltr;text-orientation:mixed;dominant-baseline:auto;baseline-shift:baseline;text-anchor:start;white-space:normal;shape-padding:0;clip-rule:nonzero;display:inline;overflow:visible;visibility:visible;opacity:1;isolation:auto;mix-blend-mode:normal;color-interpolation:sRGB;color-interpolation-filters:linearRGB;solid-color:#000000;solid-opacity:1;vector-effect:none;fill:#000000;fill-opacity:1;fill-rule:nonzero;stroke:none;stroke-width:0.5291667;stroke-linecap:round;stroke-linejoin:miter;stroke-miterlimit:4;stroke-dasharray:none;stroke-dashoffset:0;stroke-opacity:1;color-rendering:auto;image-rendering:auto;shape-rendering:auto;text-rendering:auto;enable-background:accumulate" d="m 3.7739299,0.7937492 a 0.26460981,0.26460981 0 0 0 -0.2635488,0.265618 v 0.259416 H 2.1197682 a 0.26460981,0.26460981 0 0 0 -0.02739,0 0.26460981,0.26460981 0 0 0 -0.2382282,0.264065 v 7.943185 a 0.26460981,0.26460981 0 0 0 0.2656179,0.263549 H 8.4635663 A 0.26460981,0.26460981 0 0 0 8.7291841,9.5260332 V 1.5828482 A 0.26460981,0.26460981 0 0 0 8.4635663,1.3187832 H 7.0729533 V 1.0593672 A 0.26460981,0.26460981 0 0 0 6.8088859,0.7937492 Z m 0.2656179,0.529167 h 2.5037229 v 0.519348 H 4.0395478 Z M 2.383317,1.8463992 h 1.1270641 v 0.259932 a 0.26460981,0.26460981 0 0 0 0.2635488,0.265615 h 3.034956 a 0.26460981,0.26460981 0 0 0 0.2640674,-0.265615 v -0.259932 h 1.1265456 v 7.414016 H 2.383317 Z m 1.2521194,2.357477 a 0.26495232,0.26495232 0 0 0 0.025323,0.529167 h 3.2597487 a 0.26464799,0.26464799 0 0 0 0,-0.529167 H 3.6607597 a 0.26460981,0.26460981 0 0 0 -0.025323,0 z m 0,1.085723 a 0.26495282,0.26495282 0 0 0 0.025323,0.529167 h 3.2597487 a 0.2646485,0.2646485 0 1 0 0,-0.529167 H 3.6607597 a 0.26460981,0.26460981 0 0 0 -0.025323,0 z m 0,1.086239 a 0.26495282,0.26495282 0 0 0 0.025323,0.529167 h 3.2597487 a 0.2646485,0.2646485 0 1 0 0,-0.529167 H 3.6607597 a 0.26460981,0.26460981 0 0 0 -0.025323,0 z" />
	</g>
</svg>
