<svg xmlns="http://www.w3.org/2000/svg" data-name="Layer 1" viewBox="0 0 64 80" x="0px" y="0px">
	<path d="M4.768,61.989H59.232c.552,0,1-.448,1-1v-7.651c0-12.407-9.293-22.678-21.283-24.234,4.461-2.46,7.492-7.207,7.492-12.651,0-7.962-6.478-14.44-14.44-14.44s-14.44,6.478-14.44,14.44c0,5.444,3.031,10.191,7.492,12.651-11.99,1.557-21.283,11.827-21.283,24.234v7.651c0,.552,.448,1,1,1ZM19.56,16.452c0-6.86,5.581-12.44,12.44-12.44s12.44,5.581,12.44,12.44-5.581,12.44-12.44,12.44-12.44-5.581-12.44-12.44ZM5.768,53.337c0-12.376,10.069-22.446,22.446-22.446h7.572c12.376,0,22.446,10.069,22.446,22.446v6.651H5.768v-6.651Z" />
</svg>
